<svg width="100" height="100" viewBox="0 0 100 100" fill="none" xmlns="http://www.w3.org/2000/svg">
<path d="M99.749 49.8744C99.749 55.9103 98.459 61.8871 95.9526 67.4636C93.4461 73.0401 89.7724 78.107 85.1411 82.375C80.5098 86.643 75.0117 90.0286 68.9607 92.3385C62.9096 94.6483 56.4241 95.8372 49.8745 95.8372C43.3249 95.8372 36.8394 94.6483 30.7884 92.3385C24.7373 90.0286 19.2392 86.643 14.6079 82.375C9.97663 78.107 6.3029 73.0401 3.79647 67.4636C1.29004 61.8871 -5.72585e-07 55.9103 0 49.8744L49.8745 49.8744H99.749Z" fill="#5D87E0"/>
<path d="M99.749 49.8745C99.749 36.647 94.4944 23.9612 85.1411 14.6079C75.7878 5.25462 63.1021 9.98652e-07 49.8745 0C36.647 -9.98652e-07 23.9612 5.25462 14.6079 14.6079C5.25462 23.9612 1.9973e-06 36.647 0 49.8745L49.8745 49.8745H99.749Z" fill="#004081"/>
<path d="M99.749 49.8745C99.749 36.647 94.4944 23.9612 85.1411 14.6079C75.7878 5.25462 63.1021 9.98652e-07 49.8745 0C36.647 -9.98652e-07 23.9612 5.25462 14.6079 14.6079C5.25462 23.9612 1.9973e-06 36.647 0 49.8745L49.8745 49.8745H99.749Z" fill="#004081"/>
<path d="M18.5389 61.2937V39.6887H22.8889L30.9799 50.4187H28.9499L36.8089 39.6887H41.1589V61.2937H36.6639V44.6477L38.4619 45.0537L30.1389 55.7837H29.5589L21.5259 45.0537L23.0339 44.6477V61.2937H18.5389ZM43.395 61.2937L50.7031 39.6887H56.6771L63.9851 61.2937H59.0841L57.6341 56.8857H49.7171L48.267 61.2937H43.395ZM50.9641 52.9707H56.3871L53.0811 42.7627H54.2991L50.9641 52.9707ZM66.2303 61.2937V39.6887H74.5243C76.013 39.6887 77.3276 39.9497 78.4683 40.4717C79.6283 40.9937 80.537 41.767 81.1943 42.7917C81.8516 43.8164 82.1803 45.0827 82.1803 46.5907C82.1803 48.06 81.842 49.307 81.1653 50.3317C80.508 51.3564 79.5993 52.1394 78.4393 52.6807C77.2986 53.2027 75.9936 53.4637 74.5243 53.4637H70.7253V61.2937H66.2303ZM70.7253 49.5487H74.5533C75.1913 49.5487 75.7423 49.423 76.2063 49.1717C76.6703 48.9204 77.028 48.5724 77.2793 48.1277C77.55 47.683 77.6853 47.1707 77.6853 46.5907C77.6853 45.9914 77.55 45.4694 77.2793 45.0247C77.028 44.58 76.6703 44.232 76.2063 43.9807C75.7423 43.7294 75.1913 43.6037 74.5533 43.6037H70.7253V49.5487Z" fill="white"/>
</svg>
